<?xml version="1.0" encoding="UTF-8" standalone="no"?>
<!-- Created with Inkscape (http://www.inkscape.org/) -->

<svg
   width="96.229027mm"
   height="79.395973mm"
   viewBox="0 0 96.229027 79.395973"
   version="1.1"
   id="svg5"
   xml:space="preserve"
   xmlns:inkscape="http://www.inkscape.org/namespaces/inkscape"
   xmlns:sodipodi="http://sodipodi.sourceforge.net/DTD/sodipodi-0.dtd"
   xmlns="http://www.w3.org/2000/svg"
   xmlns:svg="http://www.w3.org/2000/svg"><sodipodi:namedview
     id="namedview7"
     pagecolor="#ffffff"
     bordercolor="#000000"
     borderopacity="0.25"
     inkscape:showpageshadow="2"
     inkscape:pageopacity="0.0"
     inkscape:pagecheckerboard="0"
     inkscape:deskcolor="#d1d1d1"
     inkscape:document-units="mm"
     showgrid="false"
     inkscape:lockguides="true" /><defs
     id="defs2" /><g
     inkscape:label="Layer 1"
     inkscape:groupmode="layer"
     id="layer1"
     transform="translate(-0.29699162,-0.35221585)"><path
       style="fill:#000000;stroke-width:0.264583"
       d="M 41.428069,79.589474 C 8.053487,76.616354 -13.509007,24.745194 10.54053,5.285808 c 11.44768,-9.262749 24.150879,-5.20896603 30.906369,9.862689 5.71322,12.746337 10.18103,13.103737 20.38512,1.630682 8.12812,-9.138909 14.77461,-10.884763 24.07134,-6.322888 22.805851,11.190751 5.65227,64.129023 -20.90239,64.507593 -3.05459,0.0435 -3.40598,0.10152 -4.4996,0.74243 -5.50243,3.22464 -11.88308,4.52369 -19.0733,3.88316 z m 9.9092,-4.5935 c 3.97894,-0.88678 4.97622,-1.65921 3.34141,-2.58804 -12.96421,-7.36567 -8.54729,-28.81876 5.74977,-27.9268 11.84571,0.73903 15.39653,14.72169 6.46571,25.46114 -0.72507,0.8719 -1.29747,1.60385 -1.27199,1.62655 0.27987,0.24937 3.64261,-0.66557 5.11696,-1.39222 15.25902,-7.52069 22.58021,-50.686731 9.67433,-57.040277 -5.43138,-2.673863 -8.94004,-0.921615 -18.02845,9.003531 -5.38111,5.876526 -9.78195,7.782346 -15.41269,6.674566 -6.25463,-1.23053 -9.46936,-4.58856 -13.30996,-13.903272 -3.36448,-8.159949 -5.58157,-10.31875 -10.597363,-10.31875 -14.392328,0 -18.230264,27.638962 -7.01733,50.535422 7.772575,15.87135 20.662083,23.12818 35.289603,19.86815 z m 9.17474,-5.08559 c 7.5878,-6.85511 6.75974,-21.49486 -1.21742,-21.52363 -8.45012,-0.0305 -10.77186,13.16766 -3.56181,20.24746 2.43657,2.39255 3.29099,2.62071 4.77923,1.27617 z"
       id="path351"
       inkscape:export-filename="meural-icon.svg"
       inkscape:export-xdpi="96"
       inkscape:export-ydpi="96" /></g></svg>
